<svg width="203" height="62" viewBox="0 0 203 62" fill="none" xmlns="http://www.w3.org/2000/svg">
<path d="M12.696 28.84C13.608 28.84 14.36 28.688 14.952 28.384C15.544 28.064 15.944 27.808 16.152 27.616L19.488 32.56C19.232 32.768 18.792 33.04 18.168 33.376C17.544 33.696 16.76 33.976 15.816 34.216C14.888 34.456 13.824 34.576 12.624 34.576C10.368 34.576 8.384 34.152 6.672 33.304C4.96 32.44 3.624 31.224 2.664 29.656C1.72 28.088 1.248 26.248 1.248 24.136C1.248 22.008 1.72 20.168 2.664 18.616C3.624 17.064 4.96 15.864 6.672 15.016C8.384 14.152 10.368 13.72 12.624 13.72C13.808 13.72 14.864 13.848 15.792 14.104C16.736 14.344 17.528 14.624 18.168 14.944C18.808 15.248 19.256 15.512 19.512 15.736L16.104 20.728C15.992 20.616 15.784 20.456 15.48 20.248C15.192 20.04 14.816 19.856 14.352 19.696C13.888 19.536 13.336 19.456 12.696 19.456C11.912 19.456 11.176 19.656 10.488 20.056C9.816 20.456 9.272 21.008 8.856 21.712C8.44 22.416 8.232 23.224 8.232 24.136C8.232 25.048 8.44 25.864 8.856 26.584C9.272 27.288 9.816 27.84 10.488 28.24C11.176 28.64 11.912 28.84 12.696 28.84ZM32.4855 34.576C30.3255 34.576 28.4055 34.136 26.7255 33.256C25.0615 32.36 23.7495 31.136 22.7895 29.584C21.8455 28.016 21.3735 26.224 21.3735 24.208C21.3735 22.192 21.8455 20.4 22.7895 18.832C23.7495 17.248 25.0615 16 26.7255 15.088C28.4055 14.176 30.3255 13.72 32.4855 13.72C34.6455 13.72 36.5495 14.176 38.1975 15.088C39.8455 16 41.1335 17.248 42.0615 18.832C42.9895 20.4 43.4535 22.192 43.4535 24.208C43.4535 26.224 42.9895 28.016 42.0615 29.584C41.1335 31.136 39.8455 32.36 38.1975 33.256C36.5495 34.136 34.6455 34.576 32.4855 34.576ZM32.4855 28.576C33.3175 28.576 34.0375 28.392 34.6455 28.024C35.2535 27.656 35.7255 27.136 36.0615 26.464C36.3975 25.792 36.5655 25.032 36.5655 24.184C36.5655 23.32 36.3975 22.552 36.0615 21.88C35.7255 21.208 35.2535 20.68 34.6455 20.296C34.0375 19.912 33.3175 19.72 32.4855 19.72C31.6535 19.72 30.9255 19.912 30.3015 20.296C29.6935 20.68 29.2135 21.208 28.8615 21.88C28.5255 22.552 28.3575 23.32 28.3575 24.184C28.3575 25.032 28.5255 25.792 28.8615 26.464C29.2135 27.136 29.6935 27.656 30.3015 28.024C30.9255 28.392 31.6535 28.576 32.4855 28.576ZM60.8104 13.72C62.1864 13.72 63.5304 14 64.8424 14.56C66.1544 15.12 67.2344 16.008 68.0824 17.224C68.9304 18.424 69.3544 20.008 69.3544 21.976V34H62.0344V23.176C62.0344 21.768 61.6984 20.712 61.0264 20.008C60.3544 19.288 59.4744 18.928 58.3864 18.928C57.6664 18.928 56.9864 19.12 56.3464 19.504C55.7224 19.872 55.2104 20.4 54.8104 21.088C54.4264 21.76 54.2344 22.536 54.2344 23.416V34H46.9384V14.296H54.2344V17.2C54.4264 16.672 54.8264 16.144 55.4344 15.616C56.0584 15.072 56.8344 14.624 57.7624 14.272C58.7064 13.904 59.7224 13.72 60.8104 13.72ZM84.2741 28.84C85.1861 28.84 85.9381 28.688 86.5301 28.384C87.1221 28.064 87.5221 27.808 87.7301 27.616L91.0661 32.56C90.8101 32.768 90.3701 33.04 89.7461 33.376C89.1221 33.696 88.3381 33.976 87.3941 34.216C86.4661 34.456 85.4021 34.576 84.2021 34.576C81.9461 34.576 79.9621 34.152 78.2501 33.304C76.5381 32.44 75.2021 31.224 74.2421 29.656C73.2981 28.088 72.8261 26.248 72.8261 24.136C72.8261 22.008 73.2981 20.168 74.2421 18.616C75.2021 17.064 76.5381 15.864 78.2501 15.016C79.9621 14.152 81.9461 13.72 84.2021 13.72C85.3861 13.72 86.4421 13.848 87.3701 14.104C88.3141 14.344 89.1061 14.624 89.7461 14.944C90.3861 15.248 90.8341 15.512 91.0901 15.736L87.6821 20.728C87.5701 20.616 87.3621 20.456 87.0581 20.248C86.7701 20.04 86.3941 19.856 85.9301 19.696C85.4661 19.536 84.9141 19.456 84.2741 19.456C83.4901 19.456 82.7541 19.656 82.0661 20.056C81.3941 20.456 80.8501 21.008 80.4341 21.712C80.0181 22.416 79.8101 23.224 79.8101 24.136C79.8101 25.048 80.0181 25.864 80.4341 26.584C80.8501 27.288 81.3941 27.84 82.0661 28.24C82.7541 28.64 83.4901 28.84 84.2741 28.84ZM99.8396 25.696C99.8876 26.4 100.112 27.024 100.512 27.568C100.912 28.112 101.464 28.544 102.168 28.864C102.888 29.168 103.736 29.32 104.712 29.32C105.64 29.32 106.472 29.224 107.208 29.032C107.96 28.84 108.608 28.6 109.152 28.312C109.712 28.024 110.144 27.728 110.448 27.424L113.28 31.936C112.88 32.368 112.312 32.792 111.576 33.208C110.856 33.608 109.904 33.936 108.72 34.192C107.536 34.448 106.04 34.576 104.232 34.576C102.056 34.576 100.12 34.168 98.4236 33.352C96.7276 32.536 95.3916 31.336 94.4156 29.752C93.4396 28.168 92.9516 26.232 92.9516 23.944C92.9516 22.024 93.3676 20.296 94.1996 18.76C95.0476 17.208 96.2716 15.984 97.8716 15.088C99.4716 14.176 101.4 13.72 103.656 13.72C105.8 13.72 107.656 14.112 109.224 14.896C110.808 15.68 112.024 16.848 112.872 18.4C113.736 19.936 114.168 21.856 114.168 24.16C114.168 24.288 114.16 24.544 114.144 24.928C114.144 25.312 114.128 25.568 114.096 25.696H99.8396ZM107.304 21.88C107.288 21.368 107.152 20.864 106.896 20.368C106.64 19.856 106.256 19.44 105.744 19.12C105.232 18.784 104.576 18.616 103.776 18.616C102.976 18.616 102.296 18.776 101.736 19.096C101.192 19.4 100.776 19.8 100.488 20.296C100.2 20.792 100.04 21.32 100.008 21.88H107.304ZM125.114 43.984H117.89V14.296H125.186V17.176C125.41 16.728 125.834 16.24 126.458 15.712C127.098 15.168 127.906 14.704 128.882 14.32C129.874 13.92 130.994 13.72 132.242 13.72C134.162 13.72 135.802 14.192 137.162 15.136C138.538 16.08 139.594 17.344 140.33 18.928C141.066 20.496 141.434 22.24 141.434 24.16C141.434 26.08 141.042 27.832 140.258 29.416C139.474 30.984 138.37 32.24 136.946 33.184C135.538 34.112 133.874 34.576 131.954 34.576C130.578 34.576 129.402 34.336 128.426 33.856C127.466 33.36 126.706 32.816 126.146 32.224C125.602 31.616 125.258 31.144 125.114 30.808V43.984ZM134.306 24.16C134.306 23.264 134.106 22.464 133.706 21.76C133.306 21.04 132.762 20.48 132.074 20.08C131.402 19.664 130.642 19.456 129.794 19.456C128.914 19.456 128.122 19.664 127.418 20.08C126.73 20.48 126.186 21.04 125.786 21.76C125.386 22.464 125.186 23.264 125.186 24.16C125.186 25.056 125.386 25.864 125.786 26.584C126.186 27.288 126.73 27.84 127.418 28.24C128.122 28.64 128.914 28.84 129.794 28.84C130.642 28.84 131.402 28.64 132.074 28.24C132.762 27.84 133.306 27.288 133.706 26.584C134.106 25.864 134.306 25.056 134.306 24.16ZM143.445 14.296H146.805V6.208H154.029V14.296H158.445V20.296H154.029V25.792C154.029 26.608 154.149 27.272 154.389 27.784C154.629 28.28 155.069 28.528 155.709 28.528C156.141 28.528 156.509 28.432 156.813 28.24C157.117 28.048 157.301 27.92 157.365 27.856L159.861 33.04C159.749 33.136 159.397 33.312 158.805 33.568C158.229 33.824 157.493 34.056 156.597 34.264C155.701 34.472 154.701 34.576 153.597 34.576C151.629 34.576 150.005 34.024 148.725 32.92C147.445 31.8 146.805 30.08 146.805 27.76V20.296H143.445V14.296ZM177.851 34V30.808C177.707 31.128 177.339 31.592 176.747 32.2C176.171 32.808 175.403 33.36 174.443 33.856C173.483 34.336 172.363 34.576 171.083 34.576C169.163 34.576 167.483 34.112 166.043 33.184C164.603 32.24 163.483 30.984 162.683 29.416C161.883 27.832 161.483 26.08 161.483 24.16C161.483 22.24 161.883 20.496 162.683 18.928C163.483 17.344 164.603 16.08 166.043 15.136C167.483 14.192 169.163 13.72 171.083 13.72C172.315 13.72 173.395 13.92 174.323 14.32C175.251 14.704 176.003 15.168 176.579 15.712C177.155 16.24 177.555 16.728 177.779 17.176V14.296H185.027V34H177.851ZM168.635 24.16C168.635 25.056 168.843 25.864 169.259 26.584C169.675 27.288 170.227 27.84 170.915 28.24C171.619 28.64 172.395 28.84 173.243 28.84C174.123 28.84 174.899 28.64 175.571 28.24C176.243 27.84 176.771 27.288 177.155 26.584C177.555 25.864 177.755 25.056 177.755 24.16C177.755 23.264 177.555 22.464 177.155 21.76C176.771 21.04 176.243 20.48 175.571 20.08C174.899 19.664 174.123 19.456 173.243 19.456C172.395 19.456 171.619 19.664 170.915 20.08C170.227 20.48 169.675 21.04 169.259 21.76C168.843 22.464 168.635 23.264 168.635 24.16ZM194.553 34.576C193.369 34.576 192.345 34.152 191.481 33.304C190.633 32.44 190.209 31.416 190.209 30.232C190.209 29.016 190.633 27.984 191.481 27.136C192.345 26.272 193.369 25.84 194.553 25.84C195.769 25.84 196.801 26.272 197.649 27.136C198.497 27.984 198.921 29.016 198.921 30.232C198.921 31.416 198.497 32.44 197.649 33.304C196.801 34.152 195.769 34.576 194.553 34.576Z" fill="white"/>
<path d="M16.2118 58V47.78H21.205C22.4898 47.78 23.4534 48.0233 24.0958 48.51C24.7479 48.9967 25.074 49.6391 25.074 50.4372C25.074 50.9725 24.9426 51.4397 24.6798 51.8388C24.417 52.2281 24.0569 52.5299 23.5994 52.744C23.1419 52.9581 22.6163 53.0652 22.0226 53.0652L22.3 52.4666C22.9424 52.4666 23.5118 52.5737 24.0082 52.7878C24.5046 52.9922 24.8891 53.2988 25.1616 53.7076C25.4439 54.1164 25.585 54.6177 25.585 55.2114C25.585 56.0874 25.2395 56.7736 24.5484 57.27C23.8573 57.7567 22.8402 58 21.497 58H16.2118ZM18.5624 56.2188H21.3218C21.935 56.2188 22.3973 56.1215 22.7088 55.9268C23.03 55.7224 23.1906 55.4012 23.1906 54.9632C23.1906 54.5349 23.03 54.2186 22.7088 54.0142C22.3973 53.8001 21.935 53.693 21.3218 53.693H18.3872V51.9702H20.913C21.4873 51.9702 21.9253 51.8729 22.227 51.6782C22.5385 51.4738 22.6942 51.1672 22.6942 50.7584C22.6942 50.3593 22.5385 50.0625 22.227 49.8678C21.9253 49.6634 21.4873 49.5612 20.913 49.5612H18.5624V56.2188ZM29.4197 58V47.78H33.8435C34.7584 47.78 35.5468 47.9309 36.2087 48.2326C36.8705 48.5246 37.3815 48.948 37.7417 49.5028C38.1018 50.0576 38.2819 50.7195 38.2819 51.4884C38.2819 52.2476 38.1018 52.9046 37.7417 53.4594C37.3815 54.0045 36.8705 54.423 36.2087 54.715C35.5468 55.007 34.7584 55.153 33.8435 55.153H30.7337L31.7849 54.1164V58H29.4197ZM35.9167 58L33.3617 54.2916H35.8875L38.4717 58H35.9167ZM31.7849 54.3792L30.7337 53.2696H33.7121C34.4421 53.2696 34.9871 53.1139 35.3473 52.8024C35.7074 52.4812 35.8875 52.0432 35.8875 51.4884C35.8875 50.9239 35.7074 50.4859 35.3473 50.1744C34.9871 49.8629 34.4421 49.7072 33.7121 49.7072H30.7337L31.7849 48.583V54.3792ZM40.8566 58L45.4118 47.78H47.7478L52.3176 58H49.8356L46.098 48.9772H47.0324L43.2802 58H40.8566ZM43.1342 55.81L43.762 54.0142H49.018L49.6604 55.81H43.1342ZM55.4219 58V47.78H57.3783L63.4081 55.1384H62.4591V47.78H64.7951V58H62.8533L56.8089 50.6416H57.7579V58H55.4219ZM69.2571 58V47.78H73.8999C75.0095 47.78 75.9877 47.9941 76.8345 48.4224C77.6813 48.8409 78.3432 49.4298 78.8201 50.189C79.2971 50.9482 79.5355 51.8485 79.5355 52.89C79.5355 53.9217 79.2971 54.8221 78.8201 55.591C78.3432 56.3502 77.6813 56.9439 76.8345 57.3722C75.9877 57.7907 75.0095 58 73.8999 58H69.2571ZM71.6223 56.0582H73.7831C74.4645 56.0582 75.0533 55.9317 75.5497 55.6786C76.0559 55.4158 76.4452 55.0459 76.7177 54.569C77 54.0921 77.1411 53.5324 77.1411 52.89C77.1411 52.2379 77 51.6782 76.7177 51.211C76.4452 50.7341 76.0559 50.3691 75.5497 50.116C75.0533 49.8532 74.4645 49.7218 73.7831 49.7218H71.6223V56.0582ZM85.5387 51.8972H90.4589V53.7368H85.5387V51.8972ZM85.7139 56.102H91.2765V58H83.3633V47.78H91.0867V49.678H85.7139V56.102ZM95.2024 58V47.78H99.8452C100.955 47.78 101.933 47.9941 102.78 48.4224C103.627 48.8409 104.288 49.4298 104.765 50.189C105.242 50.9482 105.481 51.8485 105.481 52.89C105.481 53.9217 105.242 54.8221 104.765 55.591C104.288 56.3502 103.627 56.9439 102.78 57.3722C101.933 57.7907 100.955 58 99.8452 58H95.2024ZM97.5676 56.0582H99.7284C100.41 56.0582 100.999 55.9317 101.495 55.6786C102.001 55.4158 102.39 55.0459 102.663 54.569C102.945 54.0921 103.086 53.5324 103.086 52.89C103.086 52.2379 102.945 51.6782 102.663 51.211C102.39 50.7341 102.001 50.3691 101.495 50.116C100.999 49.8532 100.41 49.7218 99.7284 49.7218H97.5676V56.0582Z" fill="#5C53FE"/>
<rect x="118" y="42" width="7" height="16" fill="white"/>
</svg>
